<svg width="1445" height="2085" viewBox="0 0 1445 2085" fill="none" xmlns="http://www.w3.org/2000/svg">
<path fill-rule="evenodd" clip-rule="evenodd" d="M361.347 769.551C415.102 769.202 482.252 729.555 520.576 767.25C565.18 811.121 520.125 893.779 545.7 950.876C563.088 989.694 615.813 999.386 640.173 1034.25C670.112 1077.1 708.446 1123.87 702.878 1175.85C697.41 1226.89 646.638 1259.9 611.949 1297.74C578.999 1333.68 552.218 1389.77 503.582 1393.25C449.025 1397.14 412.164 1335.87 361.347 1315.64C330.602 1303.4 296.982 1306.24 264.875 1298.22C226.661 1288.68 188.328 1281.94 153.412 1263.72C107.107 1239.54 52.7169 1219.75 27.2239 1174.15C1.64184 1128.4 -13.4673 1062.09 16.705 1019.23C51.1392 970.314 145.969 1002.61 181.735 954.657C219.39 904.174 159.255 814.515 203.113 769.315C240.309 730.981 307.934 769.899 361.347 769.551Z" fill="#D9D9D9"/>
<path fill-rule="evenodd" clip-rule="evenodd" d="M1096.42 775.366C1141.94 781.186 1185.99 736.534 1229.92 749.786C1273.36 762.89 1298.94 807.547 1325.36 844.428C1350.98 880.185 1366.56 920.611 1381.88 961.849C1398.85 1007.56 1422 1052.26 1420.64 1101C1419.18 1153.14 1402.53 1204.68 1373.88 1248.27C1344.2 1293.41 1305.76 1338.66 1254.08 1354.37C1202.68 1370 1150.04 1336.02 1096.42 1332.63C1046.44 1329.47 996.411 1348.16 948.077 1335.04C896.226 1320.97 839.731 1300.1 810.497 1255.02C781.155 1209.78 788.998 1149.98 793.185 1096.21C796.733 1050.67 829.012 1012.37 832.942 966.864C837.656 912.279 796.095 855.3 818.315 805.219C839.779 756.842 892.777 719.048 945.4 713.4C1000.19 707.518 1041.76 768.376 1096.42 775.366Z" fill="#D9D9D9"/>
<path fill-rule="evenodd" clip-rule="evenodd" d="M394.784 1421.16C457.818 1425.06 489.804 1498.44 539.117 1537.89C582.202 1572.36 638.27 1590.96 666.358 1638.45C695.883 1688.38 711.331 1749.66 697.693 1806.03C684.447 1860.79 632.936 1894.35 594.492 1935.53C557.609 1975.04 525.467 2018.54 476.992 2042.45C422.245 2069.46 361.2 2092.97 301.545 2080.02C240.462 2066.76 191.532 2021.21 152.865 1972.1C115.371 1924.48 95.5933 1866.72 86.4322 1806.81C77.2073 1746.49 71.7061 1681.91 100.242 1627.97C128.217 1575.08 189.545 1553.69 238.51 1519.31C289.894 1483.24 332.119 1417.29 394.784 1421.16Z" fill="#D9D9D9"/>
<path fill-rule="evenodd" clip-rule="evenodd" d="M1119.25 1612.76C1177.94 1584.64 1254.71 1566.46 1310.15 1600.54C1365.5 1634.57 1376.12 1711.84 1385.07 1776.2C1392.48 1829.48 1367.55 1879.07 1356.19 1931.66C1345.76 1979.92 1361.76 2044.5 1321.07 2072.46C1277.86 2102.16 1219.39 2067.84 1167.36 2061.43C1136.09 2057.57 1106.4 2052.98 1076.75 2042.34C1048.77 2032.29 1027.06 2012.73 999.646 2001.23C943.124 1977.53 859.654 1993.04 830.552 1939.1C805.021 1891.77 849.422 1830.31 886.347 1791.23C919.37 1756.27 980.071 1769.66 1018.24 1740.42C1062.2 1706.73 1069.31 1636.69 1119.25 1612.76Z" fill="#D9D9D9"/>
<path fill-rule="evenodd" clip-rule="evenodd" d="M1086.79 10.8844C1129.85 30.269 1132.73 98.6824 1175.22 119.3C1217.52 139.822 1270.66 104.312 1314.47 121.362C1365.14 141.079 1421.93 171.03 1439.95 222.324C1457.54 272.383 1420.68 325.001 1403.67 375.259C1387.94 421.75 1387.95 486.959 1343.41 507.585C1290.65 532.022 1224.12 454.258 1173.05 482.062C1117.79 512.146 1149.66 644.969 1086.79 647.293C1025.33 649.564 1035.58 536.763 997.397 488.553C977.755 463.751 940.833 459.719 919.638 436.23C897.861 412.095 888.03 380.768 873.78 351.55C856.246 315.596 830.401 283.014 825.554 243.307C820.027 198.036 822.286 149.48 844.231 109.499C866.91 68.18 905.744 35.4117 949.408 17.6596C992.42 0.172413 1044.45 -8.17309 1086.79 10.8844Z" fill="#D9D9D9"/>
<path fill-rule="evenodd" clip-rule="evenodd" d="M391.443 0.176326C431.488 -2.4569 466.164 25.0667 504.018 38.3967C546.032 53.1921 610.915 42.365 628.028 83.4899C647.706 130.78 581.264 177.23 583.088 228.418C584.449 266.622 628.202 290.886 636.744 328.148C647.365 374.483 668.307 432.154 638.226 468.963C607.996 505.954 544.441 480.44 499.362 496.255C460.141 510.015 432.724 550.692 391.443 555.541C349.492 560.469 311.659 532.975 270.584 523.127C219.406 510.858 157.45 525.133 118.232 490.039C79.949 455.78 82.4627 395.373 71.6891 345.142C61.0218 295.406 42.8942 244.774 55.0331 195.376C67.1317 146.143 95.9544 97.5628 139.079 70.9064C181.524 44.6704 237.732 66.2135 285.78 52.7472C324.141 41.9958 351.69 2.79035 391.443 0.176326Z" fill="#D9D9D9"/>
</svg>
