<svg width="1092" height="1023" viewBox="0 0 1092 1023" fill="none" xmlns="http://www.w3.org/2000/svg">
<circle cx="5" cy="122" r="5" fill="#D9D9D9"/>
<circle cx="28" cy="237" r="5" fill="#D9D9D9"/>
<circle cx="521" cy="5" r="5" fill="#D9D9D9"/>
<circle cx="521" cy="5" r="5" fill="#D9D9D9"/>
<circle cx="579" cy="107" r="5" fill="#D9D9D9"/>
<circle cx="236" cy="438" r="5" fill="#D9D9D9"/>
<circle cx="188" cy="552" r="5" fill="#D9D9D9"/>
<circle cx="193" cy="680" r="5" fill="#D9D9D9"/>
<circle cx="514" cy="844" r="5" fill="#D9D9D9"/>
<circle cx="952" cy="929" r="5" fill="#D9D9D9"/>
<circle cx="1087" cy="1018" r="5" fill="#D9D9D9"/>
<circle cx="365" cy="266" r="5" fill="#D9D9D9"/>
<circle cx="186" cy="137" r="5" fill="#D9D9D9"/>
<circle cx="136" cy="247" r="5" fill="#D9D9D9"/>
<path d="M187.5 135L4.5 122.5L26 238.5L136.5 247.5L187.5 135ZM187.5 135C447.1 34.6 519 6.5 522.5 5L580.5 108.5L366 264L233 442L187.5 549.5L193.5 680L514 843.5L954 927.5L1087 1017.5" stroke="#CDCDCD" stroke-width="2"/>
</svg>
